<svg width="414" height="160" viewBox="0 0 414 160" fill="none" xmlns="http://www.w3.org/2000/svg">
<g clip-path="url(#clip0)">
<path d="M218.295 229.553C218.295 199.022 230.424 169.741 252.013 148.153C273.601 126.564 302.882 114.435 333.413 114.435V229.553H218.295Z" fill="#6454B6"/>
<path d="M333.413 -0.682983C363.944 -0.682716 393.225 11.4458 414.813 33.0345C436.402 54.6233 448.531 83.9039 448.531 114.435L333.413 114.435V-0.682983Z" fill="#6454B6"/>
<path d="M103.177 114.435C103.177 83.9039 115.306 54.6233 136.895 33.0345C158.484 11.4458 187.764 -0.682716 218.295 -0.682983V114.435L103.177 114.435Z" fill="#EBEFFD"/>
<path d="M333.413 114.435C363.944 114.435 393.225 126.563 414.814 148.152C436.403 169.741 448.531 199.022 448.531 229.553H333.413V114.435Z" fill="#253274"/>
<path d="M218.295 -0.682983C248.826 -0.682983 278.107 11.4455 299.696 33.0343C321.285 54.6231 333.413 83.9038 333.413 114.435L218.295 114.435V-0.682983Z" fill="#9DCCF6"/>
<path d="M218.295 55.6851C226.01 55.6849 233.65 57.2044 240.778 60.1569C247.906 63.1093 254.382 67.4367 259.838 72.8922C265.293 78.3477 269.621 84.8243 272.573 91.9522C275.526 99.0801 277.045 106.72 277.045 114.435L218.295 114.435V55.6851Z" fill="#99ADE5"/>
<path d="M218.295 229.553H103.177C72.6458 229.553 43.3651 217.425 21.7761 195.836C0.187149 174.247 -11.9416 144.966 -11.9419 114.435L103.177 114.435C133.708 114.435 162.989 126.564 184.578 148.153C206.166 169.741 218.295 199.022 218.295 229.553Z" fill="#253274"/>
<path d="M103.176 171.994H45.9081C30.6039 172.033 15.9112 165.99 5.06226 155.196C-5.78671 144.401 -11.9033 129.739 -11.942 114.435L45.327 114.435C52.905 114.415 60.4125 115.889 67.421 118.771C74.4295 121.653 80.8017 125.887 86.1736 131.232C91.5455 136.577 95.812 142.928 98.7292 149.922C101.647 156.916 103.158 164.416 103.176 171.994Z" fill="#9DCCF6"/>
<path d="M233.78 143.81C233.78 145.843 233.379 147.856 232.601 149.735C231.823 151.613 230.683 153.32 229.245 154.757C227.808 156.195 226.101 157.335 224.223 158.113C222.344 158.891 220.331 159.291 218.298 159.291C216.265 159.291 214.252 158.891 212.373 158.113C210.495 157.335 208.788 156.195 207.351 154.757C205.913 153.32 204.773 151.613 203.995 149.735C203.216 147.856 202.816 145.843 202.816 143.81C202.816 139.704 204.447 135.766 207.351 132.863C210.254 129.959 214.192 128.328 218.298 128.328C220.331 128.328 222.344 128.728 224.223 129.506C226.101 130.284 227.808 131.425 229.246 132.862C230.683 134.3 231.824 136.007 232.602 137.885C233.38 139.764 233.78 141.777 233.78 143.81Z" fill="#6454B6"/>
<path d="M103.176 56.876C103.176 72.1416 97.1118 86.7819 86.3174 97.5764C75.523 108.371 60.8827 114.435 45.6171 114.435C30.3515 114.435 15.7113 108.37 4.91699 97.576C-5.87736 86.7817 -11.9417 72.1415 -11.942 56.876C-11.9417 41.6105 -5.87736 26.9703 4.91699 16.1759C15.7113 5.38155 30.3515 -0.682716 45.6171 -0.682983C60.8826 -0.682716 75.5228 5.38155 86.3171 16.1759C97.1115 26.9703 103.176 41.6105 103.176 56.876Z" fill="#6454B6"/>
<path d="M77.373 57.472C77.3728 65.9469 74.006 74.0747 68.0133 80.0673C62.0206 86.06 53.893 89.4268 45.4181 89.4271C36.9432 89.4268 28.8154 86.06 22.8228 80.0673C16.8301 74.0747 13.4633 65.9469 13.463 57.472C13.4633 48.9971 16.8301 40.8693 22.8228 34.8766C28.8154 28.884 36.9432 25.5173 45.4181 25.517C53.8931 25.517 62.0209 28.8837 68.0137 34.8764C74.0064 40.8691 77.373 48.997 77.373 57.472Z" fill="#253274"/>
</g>
<defs>
<clipPath id="clip0">
<rect width="414" height="160" fill="white"/>
</clipPath>
</defs>
</svg>
