<svg width="17" height="11" viewBox="0 0 17 11" fill="none" xmlns="http://www.w3.org/2000/svg">
<path d="M8.79492 10.7969C13.5293 10.7969 16.7988 6.9707 16.7988 5.77539C16.7988 4.57422 13.5234 0.753906 8.79492 0.753906C4.125 0.753906 0.785156 4.57422 0.785156 5.77539C0.785156 6.9707 4.11914 10.7969 8.79492 10.7969ZM8.79492 9.87109C4.93359 9.87109 1.81055 6.60156 1.81055 5.77539C1.81055 5.07812 4.93359 1.67969 8.79492 1.67969C12.6387 1.67969 15.7734 5.07812 15.7734 5.77539C15.7734 6.60156 12.6387 9.87109 8.79492 9.87109ZM8.79492 9.05664C10.6172 9.05664 12.082 7.5625 12.082 5.77539C12.082 3.94141 10.6172 2.49414 8.79492 2.49414C6.96094 2.49414 5.49023 3.94141 5.49609 5.77539C5.50781 7.5625 6.96094 9.05664 8.79492 9.05664ZM8.79492 6.86523C8.18555 6.86523 7.69336 6.37305 7.69336 5.77539C7.69336 5.17188 8.18555 4.68555 8.79492 4.68555C9.39844 4.68555 9.89062 5.17188 9.89062 5.77539C9.89062 6.37305 9.39844 6.86523 8.79492 6.86523Z" fill="#253274" fill-opacity="0.6"/>
</svg>
